0
SECTION
2
HEADER
9
$INSUNITS
70
4
9
$ACADVER
1
AC1014
9
$HANDSEED
5
FFFF
0
ENDSEC
0
SECTION
2
TABLES
0
TABLE
2
VPORT
5
8
100
AcDbSymbolTable
0
ENDTAB
0
TABLE
2
LTYPE
5
5
100
AcDbSymbolTable
0
LTYPE
5
14
100
AcDbSymbolTableRecord
100
AcDbLinetypeTableRecord
2
BYBLOCK
70
0
0
LTYPE
5
15
100
AcDbSymbolTableRecord
100
AcDbLinetypeTableRecord
2
BYLAYER
70
0
0
ENDTAB
0
TABLE
2
LAYER
5
2
100
AcDbSymbolTable
70
2
0
LAYER
5
50
100
AcDbSymbolTableRecord
100
AcDbLayerTableRecord
2
0
70
0
6
CONTINUOUS
0
ENDTAB
0
TABLE
2
STYLE
5
3
100
AcDbSymbolTable
70
1
0
STYLE
5
11
100
AcDbSymbolTableRecord
100
AcDbTextStyleTableRecord
2
STANDARD
70
0
0
ENDTAB
0
TABLE
2
VIEW
5
6
100
AcDbSymbolTable
70
0
0
ENDTAB
0
TABLE
2
UCS
5
7
100
AcDbSymbolTable
70
0
0
ENDTAB
0
TABLE
2
APPID
5
9
100
AcDbSymbolTable
70
2
0
APPID
5
12
100
AcDbSymbolTableRecord
100
AcDbRegAppTableRecord
2
ACAD
70
0
0
ENDTAB
0
TABLE
2
DIMSTYLE
5
A
100
AcDbSymbolTable
70
1
0
ENDTAB
0
TABLE
2
BLOCK_RECORD
5
1
100
AcDbSymbolTable
70
1
0
BLOCK_RECORD
5
1F
100
AcDbSymbolTableRecord
100
AcDbBlockTableRecord
2
*MODEL_SPACE
0
BLOCK_RECORD
5
1B
100
AcDbSymbolTableRecord
100
AcDbBlockTableRecord
2
*PAPER_SPACE
0
ENDTAB
0
ENDSEC
0
SECTION
2
BLOCKS
0
BLOCK
5
20
100
AcDbEntity
100
AcDbBlockBegin
2
*MODEL_SPACE
0
ENDBLK
5
21
100
AcDbEntity
100
AcDbBlockEnd
0
BLOCK
5
1C
100
AcDbEntity
100
AcDbBlockBegin
2
*PAPER_SPACE
0
ENDBLK
5
1D
100
AcDbEntity
100
AcDbBlockEnd
0
ENDSEC
0
SECTION
2
ENTITIES
0
LWPOLYLINE
5
100
100
AcDbEntity
8
0
100
AcDbPolyline
90
11
70
1
43
0.0
10
3.8857805861880503e-15
20
-22.859999999999999
10
5.5511151231257827e-16
20
-2.54
42
0.41421400000000097
10
-2.54
20
2.2204460492503131e-15
10
-15.24
20
0
10
-15.461400000000001
20
-0.0096656299999992035
42
0.38887899999999759
10
-17.77999999999998
20
-2.5400000000000005
10
-17.780000000000001
20
-22.859999999999999
10
-17.770299999999999
20
-23.081399999999999
42
0.3888790000000073
10
-15.24
20
-25.400000000000027
10
-2.54
20
-25.399999999999999
10
-2.3186200000000001
20
-25.390300000000003
42
0.38887900000000458
0
CIRCLE
5
101
100
AcDbEntity
8
0
100
AcDbCircle
10
-2.5399981024290303
20
-2.5399981024290303
30
0
40
1.25
210
0
220
0
230
1
0
CIRCLE
5
102
100
AcDbEntity
8
0
100
AcDbCircle
10
-9.6774000000000004
20
-3.4036
30
0
40
0.24129999999999999
210
0
220
0
230
1
0
CIRCLE
5
103
100
AcDbEntity
8
0
100
AcDbCircle
10
-15.24
20
-19.050000000000004
30
0
40
0.5
210
0
220
0
230
1
0
CIRCLE
5
104
100
AcDbEntity
8
0
100
AcDbCircle
10
-11.3538
20
-21.590000000000003
30
0
40
0.24129999999999999
210
0
220
0
230
1
0
CIRCLE
5
105
100
AcDbEntity
8
0
100
AcDbCircle
10
-2.54
20
-12.699999999999999
30
0
40
0.50800000000000001
210
0
220
0
230
1
0
CIRCLE
5
106
100
AcDbEntity
8
0
100
AcDbCircle
10
-4.4450000000000003
20
-11.683999999999999
30
0
40
0.19685000000000002
210
0
220
0
230
1
0
CIRCLE
5
107
100
AcDbEntity
8
0
100
AcDbCircle
10
-2.8194000000000004
20
-19.050000000000004
30
0
40
0.24129999999999999
210
0
220
0
230
1
0
CIRCLE
5
108
100
AcDbEntity
8
0
100
AcDbCircle
10
-11.156300000000002
20
-11.43
30
0
40
0.19685000000000002
210
0
220
0
230
1
0
CIRCLE
5
109
100
AcDbEntity
8
0
100
AcDbCircle
10
-15.24
20
-16.510000000000002
30
0
40
0.5
210
0
220
0
230
1
0
CIRCLE
5
110
100
AcDbEntity
8
0
100
AcDbCircle
10
-7.3914
20
-22.936200000000003
30
0
40
0.24129999999999999
210
0
220
0
230
1
0
CIRCLE
5
111
100
AcDbEntity
8
0
100
AcDbCircle
10
-15.24
20
-2.54
30
0
40
1.25
210
0
220
0
230
1
0
CIRCLE
5
112
100
AcDbEntity
8
0
100
AcDbCircle
10
-9.2162500000000023
20
-12.5143
30
0
40
0.19685000000000002
210
0
220
0
230
1
0
CIRCLE
5
113
100
AcDbEntity
8
0
100
AcDbCircle
10
-4.9276
20
-10.744199999999999
30
0
40
0.24129999999999999
210
0
220
0
230
1
0
CIRCLE
5
114
100
AcDbEntity
8
0
100
AcDbCircle
10
-10.8978
20
-12.433300000000001
30
0
40
0.19685000000000002
210
0
220
0
230
1
0
CIRCLE
5
115
100
AcDbEntity
8
0
100
AcDbCircle
10
-15.24
20
-11.43
30
0
40
0.5
210
0
220
0
230
1
0
CIRCLE
5
116
100
AcDbEntity
8
0
100
AcDbCircle
10
-8.9407999999999994
20
-7.7978000000000005
30
0
40
0.19685000000000002
210
0
220
0
230
1
0
CIRCLE
5
117
100
AcDbEntity
8
0
100
AcDbCircle
10
-1.7525999999999999
20
-17.576799999999999
30
0
40
0.24129999999999999
210
0
220
0
230
1
0
CIRCLE
5
118
100
AcDbEntity
8
0
100
AcDbCircle
10
-9.1186000000000007
20
-18.770600000000002
30
0
40
0.19685000000000002
210
0
220
0
230
1
0
CIRCLE
5
119
100
AcDbEntity
8
0
100
AcDbCircle
10
-2.54
20
-15.24
30
0
40
0.50800000000000001
210
0
220
0
230
1
0
CIRCLE
5
120
100
AcDbEntity
8
0
100
AcDbCircle
10
-11.43
20
-13.970000000000002
30
0
40
0.19685000000000002
210
0
220
0
230
1
0
CIRCLE
5
121
100
AcDbEntity
8
0
100
AcDbCircle
10
-0.99060000000000015
20
-4.8768000000000002
30
0
40
0.24129999999999999
210
0
220
0
230
1
0
CIRCLE
5
122
100
AcDbEntity
8
0
100
AcDbCircle
10
-8.4581999999999997
20
-15.367000000000001
30
0
40
0.19685000000000002
210
0
220
0
230
1
0
CIRCLE
5
123
100
AcDbEntity
8
0
100
AcDbCircle
10
-15.24
20
-13.970000000000002
30
0
40
0.5
210
0
220
0
230
1
0
CIRCLE
5
124
100
AcDbEntity
8
0
100
AcDbCircle
10
-9.3719400000000004
20
-14.240200000000002
30
0
40
0.19685000000000002
210
0
220
0
230
1
0
CIRCLE
5
125
100
AcDbEntity
8
0
100
AcDbCircle
10
-1.8542000000000003
20
-8.8645999999999994
30
0
40
0.24129999999999999
210
0
220
0
230
1
0
CIRCLE
5
126
100
AcDbEntity
8
0
100
AcDbCircle
10
-10.0838
20
-10.0076
30
0
40
0.19685000000000002
210
0
220
0
230
1
0
CIRCLE
5
127
100
AcDbEntity
8
0
100
AcDbCircle
10
-2.54
20
-22.859999999999999
30
0
40
1.25
210
0
220
0
230
1
0
CIRCLE
5
128
100
AcDbEntity
8
0
100
AcDbCircle
10
-8.1533999999999995
20
-10.0838
30
0
40
0.24129999999999999
210
0
220
0
230
1
0
CIRCLE
5
129
100
AcDbEntity
8
0
100
AcDbCircle
10
-13.487400000000001
20
-17.348199999999999
30
0
40
0.24129999999999999
210
0
220
0
230
1
0
CIRCLE
5
130
100
AcDbEntity
8
0
100
AcDbCircle
10
-7.6200000000000001
20
-14.503399999999999
30
0
40
0.24129999999999999
210
0
220
0
230
1
0
CIRCLE
5
131
100
AcDbEntity
8
0
100
AcDbCircle
10
-2.54
20
-10.16
30
0
40
0.50800000000000001
210
0
220
0
230
1
0
CIRCLE
5
132
100
AcDbEntity
8
0
100
AcDbCircle
10
-8.3312000000000008
20
-22.331400000000002
30
0
40
0.24129999999999999
210
0
220
0
230
1
0
CIRCLE
5
133
100
AcDbEntity
8
0
100
AcDbCircle
10
-15.24
20
-8.8900000000000006
30
0
40
0.5
210
0
220
0
230
1
0
CIRCLE
5
134
100
AcDbEntity
8
0
100
AcDbCircle
10
-12.547600000000001
20
-13.2334
30
0
40
0.24129999999999999
210
0
220
0
230
1
0
CIRCLE
5
135
100
AcDbEntity
8
0
100
AcDbCircle
10
-15.24
20
-22.859999999999999
30
0
40
1.25
210
0
220
0
230
1
0
CIRCLE
5
136
100
AcDbEntity
8
0
100
AcDbCircle
10
-9.4234000000000009
20
-22.1996
30
0
40
0.24129999999999999
210
0
220
0
230
1
0
CIRCLE
5
137
100
AcDbEntity
8
0
100
AcDbCircle
10
-7.5438000000000009
20
-1.1430000000000002
30
0
40
0.24129999999999999
210
0
220
0
230
1
0
CIRCLE
5
138
100
AcDbEntity
8
0
100
AcDbCircle
10
-8.0771999999999995
20
-3.6322000000000005
30
0
40
0.24129999999999999
210
0
220
0
230
1
0
CIRCLE
5
139
100
AcDbEntity
8
0
100
AcDbCircle
10
-15.24
20
-6.3499999999999996
30
0
40
0.5
210
0
220
0
230
1
0
CIRCLE
5
140
100
AcDbEntity
8
0
100
AcDbCircle
10
-11.048999999999999
20
-10.287000000000003
30
0
40
0.19685000000000002
210
0
220
0
230
1
0
CIRCLE
5
141
100
AcDbEntity
8
0
100
AcDbCircle
10
-2.4384000000000001
20
-6.9850000000000012
30
0
40
0.24129999999999999
210
0
220
0
230
1
0
CIRCLE
5
142
100
AcDbEntity
8
0
100
AcDbCircle
10
-8.5852000000000004
20
-17.075199999999999
30
0
40
0.19685000000000002
210
0
220
0
230
1
0
LWPOLYLINE
5
143
100
AcDbEntity
8
0
100
AcDbPolyline
90
11
70
1
43
0.0
10
3.8857805861880503e-15
20
-22.859999999999999
10
5.5511151231257827e-16
20
-2.54
42
0.41421400000000103
10
-2.5400000000000005
20
1.4142145565901161e-15
10
-15.24
20
0
10
-15.461400000000001
20
-0.0096656299999992035
42
0.38887899999999759
10
-17.77999999999998
20
-2.5400000000000005
10
-17.780000000000001
20
-22.859999999999999
10
-17.770299999999999
20
-23.081399999999999
42
0.3888790000000073
10
-15.24
20
-25.400000000000027
10
-2.54
20
-25.399999999999999
10
-2.3186200000000001
20
-25.390300000000003
42
0.38887900000000458
0
CIRCLE
5
144
100
AcDbEntity
8
0
100
AcDbCircle
10
-2.54
20
-2.54
30
0
40
1.25
210
0
220
-0
230
1
0
CIRCLE
5
145
100
AcDbEntity
8
0
100
AcDbCircle
10
-9.6774000000000004
20
-3.4036
30
0
40
0.24129999999999996
210
0
220
-0
230
1
0
CIRCLE
5
146
100
AcDbEntity
8
0
100
AcDbCircle
10
-15.24
20
-19.050000000000004
30
0
40
0.5
210
0
220
-0
230
1
0
CIRCLE
5
147
100
AcDbEntity
8
0
100
AcDbCircle
10
-11.3538
20
-21.590000000000003
30
0
40
0.24129999999999996
210
0
220
-0
230
1
0
CIRCLE
5
148
100
AcDbEntity
8
0
100
AcDbCircle
10
-2.54
20
-12.699999999999999
30
0
40
0.50800000000000001
210
0
220
-0
230
1
0
CIRCLE
5
149
100
AcDbEntity
8
0
100
AcDbCircle
10
-4.4450000000000003
20
-11.683999999999999
30
0
40
0.19685000000000002
210
0
220
-0
230
1
0
CIRCLE
5
150
100
AcDbEntity
8
0
100
AcDbCircle
10
-2.8194000000000004
20
-19.050000000000004
30
0
40
0.24129999999999996
210
0
220
-0
230
1
0
CIRCLE
5
151
100
AcDbEntity
8
0
100
AcDbCircle
10
-11.156300000000002
20
-11.43
30
0
40
0.19685000000000002
210
0
220
-0
230
1
0
CIRCLE
5
152
100
AcDbEntity
8
0
100
AcDbCircle
10
-15.24
20
-16.510000000000002
30
0
40
0.5
210
0
220
-0
230
1
0
CIRCLE
5
153
100
AcDbEntity
8
0
100
AcDbCircle
10
-7.3914
20
-22.936200000000003
30
0
40
0.24129999999999996
210
0
220
-0
230
1
0
CIRCLE
5
154
100
AcDbEntity
8
0
100
AcDbCircle
10
-15.24
20
-2.54
30
0
40
1.25
210
0
220
-0
230
1
0
CIRCLE
5
155
100
AcDbEntity
8
0
100
AcDbCircle
10
-9.2162500000000023
20
-12.5143
30
0
40
0.19685000000000002
210
0
220
-0
230
1
0
CIRCLE
5
156
100
AcDbEntity
8
0
100
AcDbCircle
10
-4.9276
20
-10.744199999999999
30
0
40
0.24129999999999996
210
0
220
-0
230
1
0
CIRCLE
5
157
100
AcDbEntity
8
0
100
AcDbCircle
10
-10.8978
20
-12.433300000000001
30
0
40
0.19685000000000002
210
0
220
-0
230
1
0
CIRCLE
5
158
100
AcDbEntity
8
0
100
AcDbCircle
10
-15.24
20
-11.43
30
0
40
0.5
210
0
220
-0
230
1
0
CIRCLE
5
159
100
AcDbEntity
8
0
100
AcDbCircle
10
-8.9407999999999994
20
-7.7978000000000005
30
0
40
0.19685000000000002
210
0
220
-0
230
1
0
CIRCLE
5
160
100
AcDbEntity
8
0
100
AcDbCircle
10
-1.7525999999999999
20
-17.576799999999999
30
0
40
0.24129999999999996
210
0
220
-0
230
1
0
CIRCLE
5
161
100
AcDbEntity
8
0
100
AcDbCircle
10
-9.1186000000000007
20
-18.770600000000002
30
0
40
0.19685000000000002
210
0
220
-0
230
1
0
CIRCLE
5
162
100
AcDbEntity
8
0
100
AcDbCircle
10
-2.54
20
-15.24
30
0
40
0.50800000000000001
210
0
220
-0
230
1
0
CIRCLE
5
163
100
AcDbEntity
8
0
100
AcDbCircle
10
-11.43
20
-13.970000000000002
30
0
40
0.19685000000000002
210
0
220
-0
230
1
0
CIRCLE
5
164
100
AcDbEntity
8
0
100
AcDbCircle
10
-0.99060000000000015
20
-4.8768000000000002
30
0
40
0.24129999999999996
210
0
220
-0
230
1
0
CIRCLE
5
165
100
AcDbEntity
8
0
100
AcDbCircle
10
-8.4581999999999997
20
-15.367000000000001
30
0
40
0.19685000000000002
210
0
220
-0
230
1
0
CIRCLE
5
166
100
AcDbEntity
8
0
100
AcDbCircle
10
-15.24
20
-13.970000000000002
30
0
40
0.5
210
0
220
-0
230
1
0
CIRCLE
5
167
100
AcDbEntity
8
0
100
AcDbCircle
10
-9.3719400000000004
20
-14.240200000000002
30
0
40
0.19685000000000002
210
0
220
-0
230
1
0
CIRCLE
5
168
100
AcDbEntity
8
0
100
AcDbCircle
10
-1.8542000000000003
20
-8.8645999999999994
30
0
40
0.24129999999999996
210
0
220
-0
230
1
0
CIRCLE
5
169
100
AcDbEntity
8
0
100
AcDbCircle
10
-10.0838
20
-10.0076
30
0
40
0.19685000000000002
210
0
220
-0
230
1
0
CIRCLE
5
170
100
AcDbEntity
8
0
100
AcDbCircle
10
-2.54
20
-22.859999999999999
30
0
40
1.25
210
0
220
-0
230
1
0
CIRCLE
5
171
100
AcDbEntity
8
0
100
AcDbCircle
10
-8.1533999999999995
20
-10.0838
30
0
40
0.24129999999999996
210
0
220
-0
230
1
0
CIRCLE
5
172
100
AcDbEntity
8
0
100
AcDbCircle
10
-13.487400000000001
20
-17.348199999999999
30
0
40
0.24129999999999996
210
0
220
-0
230
1
0
CIRCLE
5
173
100
AcDbEntity
8
0
100
AcDbCircle
10
-7.6200000000000001
20
-14.503399999999999
30
0
40
0.24129999999999996
210
0
220
-0
230
1
0
CIRCLE
5
174
100
AcDbEntity
8
0
100
AcDbCircle
10
-2.54
20
-10.16
30
0
40
0.50800000000000001
210
0
220
-0
230
1
0
CIRCLE
5
175
100
AcDbEntity
8
0
100
AcDbCircle
10
-8.3312000000000008
20
-22.331400000000002
30
0
40
0.24129999999999996
210
0
220
-0
230
1
0
CIRCLE
5
176
100
AcDbEntity
8
0
100
AcDbCircle
10
-15.24
20
-8.8900000000000006
30
0
40
0.5
210
0
220
-0
230
1
0
CIRCLE
5
177
100
AcDbEntity
8
0
100
AcDbCircle
10
-12.547600000000001
20
-13.2334
30
0
40
0.24129999999999996
210
0
220
-0
230
1
0
CIRCLE
5
178
100
AcDbEntity
8
0
100
AcDbCircle
10
-15.24
20
-22.859999999999999
30
0
40
1.25
210
0
220
-0
230
1
0
CIRCLE
5
179
100
AcDbEntity
8
0
100
AcDbCircle
10
-9.4234000000000009
20
-22.1996
30
0
40
0.24129999999999996
210
0
220
-0
230
1
0
CIRCLE
5
180
100
AcDbEntity
8
0
100
AcDbCircle
10
-7.5438000000000009
20
-1.1430000000000002
30
0
40
0.24129999999999996
210
0
220
-0
230
1
0
CIRCLE
5
181
100
AcDbEntity
8
0
100
AcDbCircle
10
-8.0771999999999995
20
-3.6322000000000005
30
0
40
0.24129999999999996
210
0
220
-0
230
1
0
CIRCLE
5
182
100
AcDbEntity
8
0
100
AcDbCircle
10
-15.24
20
-6.3499999999999996
30
0
40
0.5
210
0
220
-0
230
1
0
CIRCLE
5
183
100
AcDbEntity
8
0
100
AcDbCircle
10
-11.048999999999999
20
-10.287000000000003
30
0
40
0.19685000000000002
210
0
220
-0
230
1
0
CIRCLE
5
184
100
AcDbEntity
8
0
100
AcDbCircle
10
-2.4384000000000001
20
-6.9850000000000012
30
0
40
0.24129999999999996
210
0
220
-0
230
1
0
CIRCLE
5
185
100
AcDbEntity
8
0
100
AcDbCircle
10
-8.5852000000000004
20
-17.075199999999999
30
0
40
0.19685000000000002
210
0
220
-0
230
1
0
ENDSEC
0
SECTION
2
OBJECTS
0
DICTIONARY
5
C
100
AcDbDictionary
3
ACAD_GROUP
350
D
3
ACAD_MLINESTYLE
350
17
0
DICTIONARY
5
D
100
AcDbDictionary
0
DICTIONARY
5
1A
330
C
100
AcDbDictionary
0
DICTIONARY
5
17
100
AcDbDictionary
0
ENDSEC
0
EOF
